<svg width="40" height="17" viewBox="0 0 40 17" fill="none" xmlns="http://www.w3.org/2000/svg">
<path d="M39.6532 12.7885L40 10.8079C39.8515 10.0155 39.2076 9.56996 39.2076 9.56996C39.1085 8.97585 38.5638 7.9852 38.5638 7.9852C36.7811 6.10342 30.3437 5.26162 30.3437 5.26162C29.4525 4.91482 25.3919 2.14188 25.3919 2.14188C22.8168 0.557127 18.5089 0.161334 18.5089 0.161334C12.4676 -0.432777 3.70292 0.805177 3.70292 0.805177C3.85145 1.44902 3.99998 1.54781 3.99998 1.54781C3.05905 2.63721 1.22705 5.80637 1.22705 5.80637L1.12792 7.98526C0.880255 8.23292 0.286152 9.07466 0.286152 9.07466C-0.35769 10.1641 0.286152 13.1847 0.286152 13.1847L1.07852 13.4323C0.781465 9.52057 4.74295 9.56991 4.74295 9.56991C9.15007 9.56991 8.80362 14.2247 8.80362 14.2247L28.8585 14.2741C28.6605 9.32228 33.3647 9.66908 33.3647 9.66908C37.7718 10.5108 36.7318 14.3732 36.7318 14.3732L39.3562 13.977C39.703 13.8285 39.6533 13.4817 39.6533 13.4817C39.8022 13.1847 39.6533 12.7885 39.6533 12.7885L39.6532 12.7885ZM2.71267 6.25189L1.37559 7.6384C1.37559 7.6384 1.42498 5.60807 1.9203 5.11306C1.9203 5.11306 2.11823 4.66748 2.36589 4.91514C2.41563 4.96453 2.76208 5.85572 2.71268 6.25186L2.71267 6.25189ZM16.6273 0.903931C16.6273 0.903931 21.1829 1.10185 22.6685 1.79508L26.0355 3.62716L26.3823 5.70693L17.4691 4.86516C17.5188 4.86551 16.5281 1.39933 16.6273 0.903974L16.6273 0.903931ZM15.0429 0.903931L15.3399 4.91481L9.24927 4.56802L9.19988 1.05205C9.19953 1.0524 14.7455 0.80508 15.0428 0.903869L15.0429 0.903931ZM7.61514 1.34986L8.80366 1.15194L8.95219 4.61812L7.21888 4.56872C7.21888 4.56872 6.77329 4.4202 6.87208 3.52867C6.87208 3.52832 6.82269 1.89421 7.61506 1.34978L7.61514 1.34986ZM30.1459 9.71816C30.1459 9.17344 30.5915 8.8764 30.5915 8.8764C24.5506 6.94519 5.5353 6.20259 5.5353 6.20259C22.2229 4.27139 34.5034 9.17386 34.5034 9.17386C31.9781 8.72793 30.1457 9.71822 30.1457 9.71822L30.1459 9.71816ZM35.5931 7.0937C35.5931 7.0937 37.8711 7.44049 38.3167 7.88607C38.3167 7.88607 38.9108 8.77722 39.0099 9.42104C39.0099 9.42104 36.534 8.33164 35.5931 7.09369L35.5931 7.0937Z" fill="#CECECE"/>
<path d="M4.89141 9.66895C2.91086 9.66895 1.27667 11.303 1.27667 13.2837C1.27667 15.2642 2.91077 16.8984 4.89141 16.8984C6.87196 16.8984 8.50615 15.2643 8.50615 13.2837C8.50615 11.3031 6.92174 9.66895 4.89141 9.66895ZM4.89141 15.8587C3.45556 15.8587 2.31638 14.7199 2.31638 13.2837C2.31638 11.8478 3.45521 10.7086 4.89141 10.7086C6.32726 10.7086 7.46644 11.8475 7.46644 13.2837C7.4661 14.7199 6.32726 15.8587 4.89141 15.8587Z" fill="#CECECE"/>
<path d="M2.91071 12.4424C2.91071 12.4424 3.10863 11.9471 3.45542 11.7986L4.19805 12.7395C4.19805 12.7395 4.29719 12.888 4.04953 12.9374L2.91071 12.4424Z" fill="#CECECE"/>
<path d="M4.59436 12.4917L3.85138 11.4516C3.85138 11.4516 4.14844 11.2039 4.59401 11.1545L4.74254 12.3925C4.74288 12.4419 4.74288 12.541 4.59436 12.4916V12.4917Z" fill="#CECECE"/>
<path d="M5.23799 12.4415L5.28738 11.1044C5.28738 11.1044 5.7827 11.055 6.03001 11.3521L5.4359 12.4415C5.38651 12.4415 5.28772 12.5406 5.23798 12.4415L5.23799 12.4415Z" fill="#CECECE"/>
<path d="M5.73333 12.7888L6.5257 11.7488C6.5257 11.7488 6.92189 12.0458 7.02102 12.2935L5.88219 12.9373C5.88184 12.9373 5.68392 13.0361 5.73332 12.7888L5.73333 12.7888Z" fill="#CECECE"/>
<path d="M5.93138 13.3331L7.26846 12.9863C7.26846 12.9863 7.46638 13.531 7.16932 13.729L5.93137 13.531C5.93137 13.531 5.78284 13.3825 5.93137 13.3331L5.93138 13.3331Z" fill="#CECECE"/>
<path d="M5.83227 13.8782L7.0208 14.225C7.0208 14.225 6.9714 14.8688 6.47608 14.9676L5.73345 14.0267C5.7331 14.0761 5.58458 13.8782 5.83224 13.8782L5.83227 13.8782Z" fill="#CECECE"/>
<path d="M5.38663 14.2735L6.179 15.2638C6.179 15.2638 5.73341 15.8085 5.33723 15.6106L5.2381 14.3726C5.2381 14.3726 5.2381 14.2241 5.38663 14.2735V14.2735Z" fill="#CECECE"/>
<path d="M4.84195 14.3732V15.6608C4.84195 15.6608 4.29723 15.7599 4.00018 15.4629L4.5943 14.3735C4.5449 14.3731 4.64403 14.274 4.84196 14.3731L4.84195 14.3732Z" fill="#CECECE"/>
<path d="M4.29725 14.0761L3.50488 15.0664C3.50488 15.0664 2.96017 14.9179 3.0593 14.4723L4.1487 13.8782C4.1487 13.8782 4.29723 13.977 4.29723 14.0761L4.29725 14.0761Z" fill="#CECECE"/>
<path d="M4.04963 13.5313L2.71255 13.8781C2.71255 13.8781 2.46489 13.4325 2.71255 13.0857L3.99993 13.2836C3.99993 13.2836 4.1982 13.4321 4.04967 13.5313L4.04963 13.5313Z" fill="#CECECE"/>
<path d="M33.0673 9.76758C31.0868 9.76758 29.4526 11.4017 29.4526 13.3823C29.4526 15.363 31.0867 16.9971 33.0673 16.9971C35.0479 16.9971 36.682 15.363 36.682 13.3823C36.682 11.4017 35.0479 9.76758 33.0673 9.76758ZM33.0673 16.0068C31.6315 16.0068 30.4923 14.8679 30.4923 13.4317C30.4923 11.9959 31.6311 10.8567 33.0673 10.8567C34.5032 10.8567 35.6423 11.9955 35.6423 13.4317C35.642 14.8183 34.5032 16.0068 33.0673 16.0068Z" fill="#CECECE"/>
<path d="M31.037 12.5403C31.037 12.5403 31.235 12.045 31.5818 11.8965L32.3244 12.8374C32.3244 12.8374 32.4235 12.9859 32.1759 13.0353L31.037 12.5403Z" fill="#CECECE"/>
<path d="M32.7701 12.6391L32.0275 11.5991C32.0275 11.5991 32.3245 11.3514 32.7701 11.302L32.9186 12.54C32.919 12.54 32.919 12.6391 32.7701 12.6391V12.6391Z" fill="#CECECE"/>
<path d="M33.3643 12.5411L33.4137 11.204C33.4137 11.204 33.909 11.1546 34.1564 11.4517L33.5622 12.5905C33.5622 12.5905 33.4137 12.6402 33.3643 12.5411L33.3643 12.5411Z" fill="#CECECE"/>
<path d="M33.9091 12.8877L34.7015 11.8477C34.7015 11.8477 35.0977 12.1447 35.1968 12.3924L34.058 13.0362C34.0079 13.0362 33.81 13.1353 33.9091 12.8877L33.9091 12.8877Z" fill="#CECECE"/>
<path d="M34.1072 13.4816L35.4442 13.1348C35.4442 13.1348 35.6422 13.6795 35.3451 13.8774L34.1072 13.6301C34.1072 13.6301 33.9586 13.5309 34.1072 13.4816L34.1072 13.4816Z" fill="#CECECE"/>
<path d="M33.9586 14.0259L35.1471 14.3727C35.1471 14.3727 35.0977 15.0165 34.6024 15.1153L33.8598 14.1744C33.9091 14.1744 33.7606 13.9761 33.9585 14.0258L33.9586 14.0259Z" fill="#CECECE"/>
<path d="M33.5625 14.423L34.3549 15.4133C34.3549 15.4133 33.9093 15.958 33.5131 15.7601L33.414 14.5222C33.414 14.4724 33.3646 14.3239 33.5625 14.423V14.423Z" fill="#CECECE"/>
<path d="M33.0178 14.5209L32.9684 15.7589C32.9684 15.7589 32.4237 15.858 32.1266 15.561L32.7208 14.4716C32.7208 14.4716 32.8199 14.4222 33.0178 14.521L33.0178 14.5209Z" fill="#CECECE"/>
<path d="M32.4731 14.1752L31.6807 15.1655C31.6807 15.1655 31.136 15.017 31.2351 14.5714L32.3245 13.9773C32.3245 14.0267 32.4731 14.0761 32.4731 14.1752L32.4731 14.1752Z" fill="#CECECE"/>
<path d="M32.2255 13.6301L30.8884 13.9769C30.8884 13.9769 30.6407 13.5314 30.8884 13.1846L32.1758 13.3825C32.1761 13.3825 32.3744 13.5804 32.2255 13.6302L32.2255 13.6301Z" fill="#CECECE"/>
</svg>
