<svg width="31" height="25" viewBox="0 0 31 25" fill="none" xmlns="http://www.w3.org/2000/svg">
<path fill-rule="evenodd" clip-rule="evenodd" d="M29.2376 11.0746V16.5255L30.0854 16.5254C30.5536 16.5254 30.9328 16.9046 30.9328 17.3728V19.9153C30.9328 20.3835 30.5536 20.7627 30.0854 20.7627H26.6955C26.6955 23.1031 24.7986 25 22.4582 25C20.1179 25 18.2209 23.1031 18.2209 20.7627H10.5938C10.5938 23.1031 8.69685 25 6.3565 25C4.01616 25 2.11921 23.1031 2.11921 20.7627H0.847948C0.37978 20.7627 0.000564575 20.3835 0.000564575 19.9153V17.3728C0.000564575 16.9046 0.379765 16.5254 0.847948 16.5254H14.831C15.7668 16.5254 16.5258 15.7667 16.5258 14.8306V0.42385C16.5258 0.189755 16.7158 0 16.9496 0H22.2365C22.3751 0 22.5052 0.0676836 22.5844 0.181773L28.4786 8.65485C28.9728 9.36474 29.2376 10.2095 29.2376 11.0746ZM3.8137 20.7625C3.8137 22.1648 4.95406 23.3051 6.35623 23.3051C7.75847 23.3051 8.89846 22.165 8.89875 20.7625C8.89875 19.3603 7.75847 18.22 6.35623 18.22C4.95398 18.22 3.8137 19.3603 3.8137 20.7625ZM19.9154 20.7625C19.9154 22.1648 21.0558 23.3051 22.4579 23.3051C23.8599 23.3051 25.0002 22.165 25.0005 20.7625C25.0005 19.3603 23.8602 18.22 22.4579 18.22C21.0557 18.22 19.9154 19.3603 19.9154 20.7625ZM19.068 2.96605V9.32199L19.0681 9.32199C19.0681 9.55579 19.2579 9.74554 19.4917 9.74554H25.3297C25.672 9.74554 25.873 9.3607 25.6776 9.07991L21.2559 2.72397C21.1766 2.60989 21.0466 2.5422 20.908 2.5422H19.4919C19.2578 2.5422 19.068 2.73226 19.068 2.96605ZM0 13.9836V0.847994C0 0.379531 0.379199 0.000314973 0.847382 0.000610524H13.983C14.4512 0.000610524 14.8304 0.379811 14.8304 0.847994V13.9836C14.8304 14.4518 14.4512 14.831 13.983 14.831H0.847382C0.379214 14.831 0 14.4518 0 13.9836ZM7.05419 11.0739L11.7154 4.29405C11.9805 3.90838 11.8826 3.3811 11.4972 3.11627C11.1121 2.85085 10.5836 2.94928 10.3188 3.3344L6.27037 9.22242L3.59928 6.21765C3.2883 5.8677 2.75274 5.83637 2.40308 6.14731C2.05313 6.45829 2.02179 6.99356 2.33273 7.34351L5.72264 11.1569C5.88402 11.3384 6.11487 11.4413 6.35605 11.4413C6.37349 11.4413 6.39122 11.4407 6.40896 11.4395C6.66846 11.4235 6.9067 11.2882 7.05419 11.0739Z" fill="#CECECE"/>
</svg>
